<?xml version="1.0" encoding="UTF-8"?>
<svg version="1.1" xmlns="http://www.w3.org/2000/svg" width="397" height="286">
<path d="M0 0 C3.68670793 0.52516371 4.80194837 1.44426129 7.37255859 4.08544922 C8.12021484 4.84341797 8.86787109 5.60138672 9.63818359 6.38232422 C10.39873047 7.18412109 11.15927734 7.98591797 11.94287109 8.81201172 C12.72662109 9.60607422 13.51037109 10.40013672 14.31787109 11.21826172 C20.06787109 17.12854046 20.06787109 17.12854046 20.06787109 19.43701172 C20.66857422 19.69998047 21.26927734 19.96294922 21.88818359 20.23388672 C24.20183414 21.51095548 25.29772676 22.64169715 26.94287109 24.68701172 C31.12841425 29.67286752 35.77029018 34.16578133 40.44433594 38.68798828 C41.04068848 39.27290039 41.63704102 39.8578125 42.25146484 40.46044922 C42.79343506 40.98558105 43.33540527 41.51071289 43.89379883 42.05175781 C45.06787109 43.43701172 45.06787109 43.43701172 45.06787109 45.43701172 C45.70724609 45.70513672 46.34662109 45.97326172 47.00537109 46.24951172 C49.06787109 47.43701172 49.06787109 47.43701172 50.06787109 50.43701172 C51.39218259 51.1214248 52.72679867 51.78605321 54.06787109 52.43701172 C55.70849609 54.10107422 55.70849609 54.10107422 57.31787109 56.06201172 C60.35816411 59.6972868 63.60996116 62.87102135 67.17333984 65.99169922 C73.12048529 73.66780859 73.65024073 82.05036008 73.58544922 91.43896484 C73.5924585 92.70207993 73.59946777 93.96519501 73.60668945 95.2665863 C73.62478402 98.70266564 73.6179136 102.13825971 73.60517311 105.57434654 C73.59497276 109.18780094 73.60445815 112.80121664 73.61071777 116.41467285 C73.61797388 122.48029968 73.60846033 128.54573104 73.58935547 134.61132812 C73.56759047 141.60176336 73.5746433 148.59173177 73.59666109 155.5821557 C73.61487352 161.60798181 73.61734503 167.63366823 73.60690641 173.659513 C73.6007034 177.24798567 73.59974691 180.83623967 73.61305237 184.42469788 C73.62686342 188.42842793 73.60766651 192.43136631 73.58544922 196.43505859 C73.59354614 197.60834213 73.60164307 198.78162567 73.60998535 199.99046326 C73.51062647 209.69396648 71.54527039 217.66179942 64.52519226 224.63381958 C63.95533096 225.16957611 63.38546967 225.70533264 62.79833984 226.25732422 C61.89949821 227.13987381 61.89949821 227.13987381 60.98249817 228.04025269 C59.08729697 229.89573083 57.17259495 231.72932496 55.25537109 233.56201172 C53.3534124 235.40605627 51.45584033 237.25447283 49.56037903 239.10519409 C48.38741842 240.24767634 47.2100941 241.38570469 46.02738953 242.51809692 C42.42570592 245.99180125 39.11006035 249.62959015 35.84129333 253.41696167 C31.00709005 258.92345209 25.77448759 264.07619094 20.62475586 269.28515625 C19.20377714 270.72790552 17.78910823 272.17689488 16.38061523 273.63183594 C14.33101934 275.74814519 12.2625784 277.84426293 10.18896484 279.93701172 C9.56380478 280.59000244 8.93864471 281.24299316 8.29454041 281.91577148 C3.87939023 286.31042311 3.87939023 286.31042311 -0.24389648 286.95361328 C-3.81178597 286.26796673 -4.80006962 285.00169741 -7.05712891 282.18701172 C-10.55850999 278.0113782 -14.16882847 274.11917976 -18.05712891 270.31201172 C-21.96983326 266.45183508 -25.7105118 262.51400672 -29.26416016 258.31982422 C-31.83046793 255.42296157 -34.62720424 252.769217 -37.42822266 250.10107422 C-38.93212891 248.43701172 -38.93212891 248.43701172 -38.93212891 246.43701172 C-40.25212891 245.77701172 -41.57212891 245.11701172 -42.93212891 244.43701172 C-42.51746804 239.59930162 -40.26959609 237.61781475 -36.93212891 234.43701172 C-35.7677384 233.28281509 -34.60597524 232.12596426 -33.44628906 230.96704102 C-32.80857574 230.33255539 -32.17086243 229.69806976 -31.51382446 229.0443573 C-28.62081101 226.16480766 -25.73051502 223.2825367 -22.84033203 220.40014648 C-21.32267819 218.88752336 -19.80412829 217.37579871 -18.28466797 215.86499023 C-16.07359372 213.66614644 -13.86585453 211.46399935 -11.65869141 209.26123047 C-10.98867096 208.59637131 -10.31865051 207.93151215 -9.62832642 207.24650574 C-5.73538714 203.35402303 -2.03227585 199.35346913 1.5519104 195.1743927 C3.61339718 192.81180643 5.82208802 190.62369524 8.06787109 188.43701172 C8.89287109 187.61201172 9.71787109 186.78701172 10.56787109 185.93701172 C11.39287109 185.11201172 12.21787109 184.28701172 13.06787109 183.43701172 C13.93412109 182.55013672 14.80037109 181.66326172 15.69287109 180.74951172 C18.06787109 178.43701172 18.06787109 178.43701172 21.06787109 176.43701172 C-18.86212891 176.10701172 -58.79212891 175.77701172 -99.93212891 175.43701172 C-100.26212891 176.42701172 -100.59212891 177.41701172 -100.93212891 178.43701172 C-100.93212891 155.33701172 -100.93212891 132.23701172 -100.93212891 108.43701172 C-100.60212891 109.42701172 -100.27212891 110.41701172 -99.93212891 111.43701172 C-40.03712891 110.94201172 -40.03712891 110.94201172 21.06787109 110.43701172 C16.44787109 105.81701172 11.82787109 101.19701172 7.06787109 96.43701172 C3.53662109 92.40576172 3.53662109 92.40576172 1.97802734 90.56982422 C-2.90080997 85.12228808 -8.23367333 80.07691671 -13.43212891 74.93701172 C-27.22889491 61.2956397 -27.22889491 61.2956397 -32.53613281 55.046875 C-35.21393042 51.95883768 -38.23929213 49.21906978 -41.20947266 46.41748047 C-42.93212891 44.43701172 -42.93212891 44.43701172 -42.93212891 41.43701172 C-41.28021399 40.08544497 -39.60918799 38.75724972 -37.93212891 37.43701172 C-36.90103952 36.29369255 -35.89423742 35.12826777 -34.90478516 33.94873047 C-29.50841099 27.69862061 -23.54680037 22.00762842 -17.67041016 16.21435547 C-16.77708984 15.32876953 -15.88376953 14.44318359 -14.96337891 13.53076172 C-13.6659375 12.24685547 -13.6659375 12.24685547 -12.34228516 10.93701172 C-9.56608528 8.05732303 -7.07765295 5.01769122 -4.68017578 1.81787109 C-2.93212891 0.43701172 -2.93212891 0.43701172 0 0 Z " fill="#5B48F3" transform="translate(100.93212890625,-0.43701171875)"/>
<path d="M0 0 C3.22652623 0.73225668 4.54829271 2.06588267 6.85913086 4.41943359 C7.65512695 5.22251953 8.45112305 6.02560547 9.27124023 6.85302734 C10.08786133 7.70251953 10.90448242 8.55201172 11.74584961 9.42724609 C12.58180664 10.26900391 13.41776367 11.11076172 14.27905273 11.97802734 C20.43334961 18.25792211 20.43334961 18.25792211 20.43334961 20.55224609 C21.07272461 20.82037109 21.71209961 21.08849609 22.37084961 21.36474609 C24.43334961 22.55224609 24.43334961 22.55224609 25.43334961 25.55224609 C26.09334961 25.88224609 26.75334961 26.21224609 27.43334961 26.55224609 C28.09334961 26.88224609 28.75334961 27.21224609 29.43334961 27.55224609 C29.92834961 29.03724609 29.92834961 29.03724609 30.43334961 30.55224609 C31.91834961 31.04724609 31.91834961 31.04724609 33.43334961 31.55224609 C35.15209961 33.29443359 35.15209961 33.29443359 36.93334961 35.42724609 C39.01913186 37.90639956 41.10636248 40.29620369 43.43334961 42.55224609 C41.81709431 46.6388803 38.88139649 49.34175475 35.79663086 52.34912109 C35.2389653 52.90158508 34.68129974 53.45404907 34.10673523 54.02325439 C32.32447155 55.78775124 30.53568625 57.54543404 28.74584961 59.30224609 C26.40519601 61.606102 24.06777739 63.91316758 21.73413086 66.22412109 C21.17142487 66.78123779 20.60871887 67.33835449 20.02896118 67.91235352 C16.52312611 71.40535243 13.19827555 74.99537168 9.99267578 78.76806641 C7.14291511 82.02876016 4.0237932 85.02196482 0.93334961 88.05224609 C-4.12594428 93.0571921 -8.93339957 98.1467868 -13.56665039 103.55224609 C-17.03165039 107.01724609 -17.03165039 107.01724609 -20.56665039 110.55224609 C19.36334961 110.88224609 59.29334961 111.21224609 100.43334961 111.55224609 C101.59982491 137.21470269 101.59982491 137.21470269 101.5637207 148.81665039 C101.55822351 150.91282989 101.56379889 153.00880617 101.57006836 155.10498047 C101.56940932 156.47932989 101.56813179 157.85367918 101.56616211 159.22802734 C101.56503418 160.42339111 101.56390625 161.61875488 101.56274414 162.8503418 C101.41425894 167.09841945 100.90275779 171.32757243 100.43334961 175.55224609 C40.53834961 176.04724609 40.53834961 176.04724609 -20.56665039 176.55224609 C-18.09165039 179.02724609 -18.09165039 179.02724609 -15.56665039 181.55224609 C-8.56665039 188.55224609 -8.56665039 188.55224609 -6.48608398 190.63500977 C-3.45739352 193.66376904 -0.42137252 196.68515256 2.61398315 199.70722961 C5.96494116 203.04476966 9.31322751 206.38498454 12.66137695 209.7253418 C14.4215446 211.48047668 16.18260818 213.23471352 17.94458008 214.98803711 C20.50313539 217.53438603 23.05837943 220.0840188 25.61303711 222.63427734 C26.39242645 223.4085054 27.1718158 224.18273346 27.974823 224.98042297 C32.1570504 229.16222586 36.17016658 233.42712648 40.01687622 237.92045593 C41.10640472 239.17560263 42.258091 240.37698749 43.43334961 241.55224609 C43.28738552 245.78520481 40.31218535 247.75702799 37.43334961 250.55224609 C35.38766139 252.56902237 33.34851628 254.59238636 31.30834961 256.61474609 C30.78370117 257.13101562 30.25905273 257.64728516 29.71850586 258.17919922 C27.54549884 260.33845303 25.50730528 262.45159342 23.69116211 264.92333984 C23.27608398 265.46087891 22.86100586 265.99841797 22.43334961 266.55224609 C21.77334961 266.55224609 21.11334961 266.55224609 20.43334961 266.55224609 C20.16522461 267.19162109 19.89709961 267.83099609 19.62084961 268.48974609 C18.43334961 270.55224609 18.43334961 270.55224609 15.43334961 271.55224609 C14.76180344 272.8831285 14.09638075 274.21710119 13.43334961 275.55224609 C11.72478301 277.55115734 10.01750144 279.42875588 8.18334961 281.30224609 C7.48532227 282.06214844 7.48532227 282.06214844 6.77319336 282.83740234 C4.47959517 285.18154815 2.67720928 286.48313079 -0.48852539 287.38037109 C-3.94572355 286.45026195 -4.40952829 285.85158976 -6.58740234 283.17382812 C-10.7431723 278.26391653 -15.25207208 273.76744911 -19.82577324 269.24852371 C-21.34559164 267.74634228 -22.86162749 266.24043275 -24.37672424 264.73348999 C-28.6784858 260.45599113 -32.98613188 256.18445224 -37.29785156 251.91699219 C-39.9490547 249.29249225 -42.59542932 246.66320419 -45.23884773 244.03086472 C-46.24453217 243.03139532 -47.25211095 242.03382835 -48.26159477 241.03819656 C-49.66390597 239.65499504 -51.05966738 238.26516258 -52.45507812 236.875 C-53.25114975 236.0863858 -54.04722137 235.29777161 -54.86741638 234.48526001 C-56.56665039 232.55224609 -56.56665039 232.55224609 -56.56665039 230.55224609 C-57.22665039 230.55224609 -57.88665039 230.55224609 -58.56665039 230.55224609 C-58.56665039 229.89224609 -58.56665039 229.23224609 -58.56665039 228.55224609 C-59.22665039 228.55224609 -59.88665039 228.55224609 -60.56665039 228.55224609 C-60.56665039 227.89224609 -60.56665039 227.23224609 -60.56665039 226.55224609 C-61.22665039 226.55224609 -61.88665039 226.55224609 -62.56665039 226.55224609 C-64.44165039 224.57568359 -64.44165039 224.57568359 -66.56665039 221.92724609 C-67.26790039 221.06873047 -67.96915039 220.21021484 -68.69165039 219.32568359 C-71.81859452 214.70041207 -72.81558719 210.36318765 -72.8273468 204.82862854 C-72.83797401 203.15280701 -72.83797401 203.15280701 -72.84881592 201.44313049 C-72.8463385 200.23205124 -72.84386108 199.02097198 -72.84130859 197.77319336 C-72.84897499 195.84290787 -72.84897499 195.84290787 -72.85679626 193.87362671 C-72.87015034 190.3550001 -72.87076899 186.83648114 -72.86823297 183.31783414 C-72.86716088 180.3755555 -72.87205267 177.43329844 -72.87683839 174.49102443 C-72.887921 167.54746657 -72.88837791 160.60396281 -72.88232422 153.66040039 C-72.87628383 146.50761291 -72.88859984 139.35502211 -72.90989429 132.20226818 C-72.92753116 126.05090827 -72.93350839 119.89961084 -72.93025655 113.74822658 C-72.92844697 110.07877083 -72.93104727 106.40945542 -72.94497108 102.74002266 C-72.95992293 98.64678371 -72.95056113 94.55394319 -72.93896484 90.46069336 C-72.94660858 89.25163834 -72.95425232 88.04258331 -72.96212769 86.79689026 C-72.92316763 80.57581114 -72.55871007 76.04309652 -69.56665039 70.55224609 C-68.94790039 69.28380859 -68.94790039 69.28380859 -68.31665039 67.98974609 C-66.26854148 65.13702297 -63.92111985 63.18591384 -61.21118164 60.97802734 C-59.34872833 59.36331129 -58.0159311 57.53547232 -56.56665039 55.55224609 C-55.90665039 55.55224609 -55.24665039 55.55224609 -54.56665039 55.55224609 C-54.32132568 54.98022461 -54.07600098 54.40820312 -53.82324219 53.81884766 C-52.35189566 51.16487812 -50.63112638 49.40725427 -48.46118164 47.28662109 C-47.23238281 46.07425781 -47.23238281 46.07425781 -45.97875977 44.83740234 C-45.12088867 44.00080078 -44.26301758 43.16419922 -43.37915039 42.30224609 C-36.59557769 35.70282943 -36.59557769 35.70282943 -30.21118164 28.72412109 C-25.72344483 23.49530817 -20.90199284 18.59200219 -16.05932617 13.69482422 C-14.97193928 12.5906982 -13.88997074 11.48121217 -12.81323242 10.36669922 C-11.24037435 8.7392445 -9.65183608 7.12871246 -8.05883789 5.52099609 C-7.581633 5.02112183 -7.1044281 4.52124756 -6.61276245 4.00622559 C-4.47899244 1.88574731 -2.97055056 0.63915014 0 0 Z " fill="#5B47F4" transform="translate(265.566650390625,-0.55224609375)"/>
<path d="M0 0 C0.66 0.33 1.32 0.66 2 1 C-1.3 4.3 -4.6 7.6 -8 11 C31.93 11.33 71.86 11.66 113 12 C114.1664753 37.66245659 114.1664753 37.66245659 114.13037109 49.2644043 C114.1248739 51.36058379 114.13044928 53.45656008 114.13671875 55.55273438 C114.13605971 56.92708379 114.13478218 58.30143309 114.1328125 59.67578125 C114.13168457 60.87114502 114.13055664 62.06650879 114.12939453 63.2980957 C113.98090933 67.54617336 113.46940819 71.77532633 113 76 C51.62 76.495 51.62 76.495 -11 77 C-11 76.01 -11 75.02 -11 74 C29.59 74 70.18 74 112 74 C112 53.87 112 33.74 112 13 C71.41 13 30.82 13 -11 13 C-9.07859132 9.15718264 -7.4073184 7.19568073 -4.375 4.25 C-3.55773437 3.45078125 -2.74046875 2.6515625 -1.8984375 1.828125 C-0.95871094 0.92320313 -0.95871094 0.92320313 0 0 Z " fill="#ACA3ED" transform="translate(253,99)"/>
<path d="M0 0 C1.32 0.33 2.64 0.66 4 1 C2.02 3.31 0.04 5.62 -2 8 C38.59 8 79.18 8 121 8 C121 28.13 121 48.26 121 69 C80.74 69 40.48 69 -1 69 C-1 68.67 -1 68.34 -1 68 C38.93 68 78.86 68 120 68 C119.67 64.7 119.34 61.4 119 58 C119.33 41.83 119.66 25.66 120 9 C79.41 9 38.82 9 -3 9 C-2.67 7.02 -2.34 5.04 -2 3 C-1.34 3 -0.68 3 0 3 C0 2.01 0 1.02 0 0 Z " fill="#5C48E2" transform="translate(244,104)"/>
<path d="M0 0 C3.61496574 4.40082785 4.12188952 7.77064926 4.14717102 13.38699341 C4.15432632 14.48029465 4.16148163 15.57359589 4.16885376 16.70002747 C4.17288712 18.49231026 4.17288712 18.49231026 4.17700195 20.32080078 C4.18357315 21.5830397 4.19014435 22.84527863 4.19691467 24.14576721 C4.21791368 28.32893614 4.22831526 32.51210525 4.23828125 36.6953125 C4.24233079 38.13886407 4.24644777 39.58241546 4.25063133 41.02596664 C4.26967629 47.81122838 4.28390705 54.59647931 4.2922433 61.38176262 C4.30200421 69.19632059 4.32829639 77.01059445 4.36874419 84.82505238 C4.39898243 90.87619702 4.41371957 96.92726059 4.41702431 102.97847927 C4.41936662 106.5872128 4.42821879 110.19564258 4.45348549 113.80429459 C4.48126749 117.83731979 4.47691167 121.86971698 4.4699707 125.90283203 C4.48278076 127.08554184 4.49559082 128.26825165 4.50878906 129.48680115 C4.45990416 137.30282063 3.71681162 145.08130027 -1.89660168 150.99962044 C-3.54175232 152.44237249 -5.20078839 153.75672456 -7 155 C-5.38092112 151.57357725 -3.38806469 148.70397936 -1.12109375 145.68359375 C1.09248142 142.35937459 1.12550229 139.42452669 1.12698364 135.55448914 C1.12980347 134.42312531 1.13262329 133.29176147 1.13552856 132.12611389 C1.13350433 130.88397629 1.1314801 129.64183868 1.12939453 128.36206055 C1.13114685 127.0545282 1.13289917 125.74699585 1.13470459 124.39984131 C1.13926867 120.81087818 1.13749321 117.22194375 1.1343255 113.63298011 C1.13179504 109.87615363 1.13414151 106.11932962 1.13571167 102.36250305 C1.13753202 96.05001382 1.13513126 89.73753628 1.13037109 83.42504883 C1.1249358 76.13320211 1.12668634 68.84138339 1.1321975 61.54953736 C1.13674087 55.28701211 1.13737296 49.02449528 1.13475883 42.76196891 C1.13320189 39.02268599 1.13298618 35.28341621 1.13629532 31.54413414 C1.13972981 27.37144703 1.13496426 23.19880785 1.12939453 19.02612305 C1.13243088 17.17202568 1.13243088 17.17202568 1.13552856 15.2804718 C1.13270874 14.1406485 1.12988892 13.0008252 1.12698364 11.82646179 C1.12660662 10.84035258 1.12622959 9.85424337 1.12584114 8.83825207 C0.99226848 5.82562134 0.55295854 2.96204364 0 0 Z " fill="#B5AFEF" transform="translate(170,70)"/>
<path d="M0 0 C0.66 0.33 1.32 0.66 2 1 C1.01 3.64 0.02 6.28 -1 9 C-1.99 9 -2.98 9 -4 9 C-3.89275515 26.90665213 -3.77999269 44.8132606 -3.66066074 62.71983624 C-3.6053816 71.03415724 -3.55190835 79.34848255 -3.50268555 87.6628418 C-3.45977865 94.90959069 -3.41348431 102.15630866 -3.36312145 109.40300971 C-3.3365729 113.24010062 -3.31172122 117.0771856 -3.29092598 120.91431236 C-3.27129573 124.52659941 -3.24713311 128.1388279 -3.21950912 131.75106239 C-3.2057237 133.70743452 -3.1967307 135.66383858 -3.18788147 137.62023926 C-3.17809265 138.78826584 -3.16830383 139.95629242 -3.15821838 141.15971375 C-3.15176583 142.17276423 -3.14531328 143.18581472 -3.1386652 144.22956371 C-3.00419525 146.91618177 -2.60103284 149.38183096 -2 152 C-4.55949215 149.77435465 -5.39000461 148.31365522 -6 145 C-6.0941156 143.17412173 -6.1348236 141.34518512 -6.14044189 139.51689148 C-6.14615204 138.40242645 -6.15186218 137.28796143 -6.15774536 136.13972473 C-6.15886322 134.92145493 -6.15998108 133.70318512 -6.16113281 132.44799805 C-6.16609772 131.16143311 -6.17106262 129.87486816 -6.17617798 128.54931641 C-6.18927894 125.02233675 -6.1957424 121.4953761 -6.20018864 117.96837592 C-6.20312303 115.76319929 -6.20722853 113.55802781 -6.21169281 111.35285378 C-6.22536155 104.44852717 -6.23503131 97.5442124 -6.2388947 90.63987321 C-6.24337434 82.67874723 -6.2609204 74.71779304 -6.2898953 66.75671929 C-6.31153364 60.59691636 -6.32160012 54.43716168 -6.32293582 48.27732116 C-6.32398229 44.60111589 -6.32985634 40.92507224 -6.34775543 37.24890709 C-6.36734483 33.14589437 -6.3629386 29.0432399 -6.35644531 24.94018555 C-6.3656601 23.72798843 -6.37487488 22.51579132 -6.3843689 21.26686096 C-6.3411664 12.55581657 -4.69070624 7.3711098 0 0 Z " fill="#AEA5F3" transform="translate(199,65)"/>
<path d="M0 0 C40.92 0 81.84 0 124 0 C124 0.99 124 1.98 124 3 C83.08 2.67 42.16 2.34 0 2 C0 1.34 0 0.68 0 0 Z " fill="#ABA1F1" transform="translate(1,173)"/>
<path d="M0 0 C36.96 0 73.92 0 112 0 C112 3.3 112 6.6 112 10 C111.01 10.33 110.02 10.66 109 11 C108.01 10.505 108.01 10.505 107 10 C106.71125 10.598125 106.4225 11.19625 106.125 11.8125 C105 14 105 14 103 17 C101.68 17 100.36 17 99 17 C99 17.66 99 18.32 99 19 C97.35 19.33 95.7 19.66 94 20 C95.33801412 16.9350908 96.70907981 15.14639067 99.3125 13.0625 C101.64330445 11.15812131 103.65424416 9.31601747 105.75 7.125 C108 5 108 5 111 5 C110.505 3.515 110.505 3.515 110 2 C73.7 1.67 37.4 1.34 0 1 C0 0.67 0 0.34 0 0 Z " fill="#5A45EF" transform="translate(14,171)"/>
<path d="M0 0 C0 3 0 3 -2.27905273 5.57202148 C-3.32349176 6.59564766 -4.37557038 7.61151465 -5.43359375 8.62109375 C-5.9861232 9.16226334 -6.53865265 9.70343292 -7.10792542 10.26100159 C-9.47541746 12.57937926 -11.8601082 14.87977871 -14.2434082 17.18188477 C-15.97957194 18.86381568 -17.70670586 20.55464886 -19.43359375 22.24609375 C-20.24611855 23.02127602 -20.24611855 23.02127602 -21.07505798 23.81211853 C-24.66771276 27.31106257 -24.66771276 27.31106257 -26 32 C-25.34 32 -24.68 32 -24 32 C-24 32.99 -24 33.98 -24 35 C-24.7425 35 -25.485 35 -26.25 35 C-29.56830714 36.20665714 -29.80059811 36.98992519 -31.3125 40.0625 C-31.89266121 41.36728944 -32.46085342 42.67773548 -33 44 C-33.495 42.515 -33.495 42.515 -34 41 C-34.66 41 -35.32 41 -36 41 C-36.04125 41.61875 -36.0825 42.2375 -36.125 42.875 C-36.41375 43.57625 -36.7025 44.2775 -37 45 C-38.99054876 45.69437747 -40.99255385 46.35610218 -43 47 C-45.15836145 48.53472654 -47.03028922 50.21788072 -49 52 C-47.51891127 48.5465583 -45.57178301 46.35078674 -42.89453125 43.734375 C-41.66573242 42.52201172 -41.66573242 42.52201172 -40.41210938 41.28515625 C-39.55423828 40.44855469 -38.69636719 39.61195312 -37.8125 38.75 C-30.98854331 32.10661747 -30.98854331 32.10661747 -24.5703125 25.078125 C-20.02339493 19.77261217 -15.02232367 14.91517094 -10.0625 10 C-9.0824469 9.02497614 -8.1026276 8.0497172 -7.12304688 7.07421875 C-4.75097687 4.71383382 -2.3765914 2.35583095 0 0 Z " fill="#A99EF5" transform="translate(260,3)"/>
<path d="M0 0 C1.32 0.33 2.64 0.66 4 1 C2.02 3.31 0.04 5.62 -2 8 C38.59 8 79.18 8 121 8 C121 8.33 121 8.66 121 9 C80.08 9 39.16 9 -3 9 C-2.67 7.02 -2.34 5.04 -2 3 C-1.34 3 -0.68 3 0 3 C0 2.01 0 1.02 0 0 Z " fill="#7362E8" transform="translate(244,104)"/>
<path d="M0 0 C0.67095703 0.58007812 0.67095703 0.58007812 1.35546875 1.171875 C4.1442105 3.57411736 6.93789285 5.95031428 9.8125 8.25 C12.20098614 10.16078891 13.82303761 11.69502328 15.36274719 14.34855652 C17.06877452 17.11137666 18.89624552 19.13710891 21.19604492 21.4230957 C22.03668991 22.26358963 22.8773349 23.10408356 23.74345398 23.970047 C24.64666885 24.8629393 25.54988373 25.7558316 26.48046875 26.67578125 C27.87245232 28.06351997 27.87245232 28.06351997 29.29255676 29.47929382 C31.74916575 31.92829885 34.21172293 34.3712356 36.67559814 36.81292725 C39.19297488 39.30977553 41.70463728 41.81235771 44.21679688 44.31445312 C49.13897609 49.21523963 54.06746755 54.10963453 59 59 C58.505 59.99 58.505 59.99 58 61 C51.9964873 55.04275371 45.99833953 49.08017966 40.0070343 43.11065865 C37.225096 40.33917374 34.44132118 37.56958641 31.65332031 34.80419922 C28.964644 32.13719592 26.28083114 29.46538804 23.60037231 26.7901268 C22.57501238 25.76847261 21.54788898 24.74858522 20.51901245 23.73047256 C19.08228765 22.30818854 17.65229615 20.87911243 16.22265625 19.44970703 C15.40547119 18.6369632 14.58828613 17.82421936 13.74633789 16.98684692 C12 15 12 15 12 13 C11.34 13 10.68 13 10 13 C10 12.34 10 11.68 10 11 C9.34 11 8.68 11 8 11 C8 10.34 8 9.68 8 9 C7.34 9 6.68 9 6 9 C4.4921875 7.5390625 4.4921875 7.5390625 2.875 5.625 C2.06675781 4.68527344 2.06675781 4.68527344 1.2421875 3.7265625 C0 2 0 2 0 0 Z " fill="#BCB5F6" transform="translate(197,217)"/>
<path d="M0 0 C3.21966049 1.38645955 5.03430635 2.92276318 7.2512207 5.62011719 C10.95740107 9.99519449 14.91267378 14.04053738 18.98046875 18.078125 C19.71574295 18.81198425 20.45101715 19.54584351 21.20857239 20.30194092 C23.53251847 22.62034553 25.85993173 24.93523251 28.1875 27.25 C29.7599986 28.81747464 31.33226628 30.38518099 32.90429688 31.953125 C35.7800704 34.82076985 38.65712265 37.68711711 41.53588867 40.55175781 C44.02740152 43.03104578 46.51637794 45.5128021 49 48 C48.505 48.99 48.505 48.99 48 50 C42.46039324 46.726596 42.46039324 46.726596 40.33300781 43.36914062 C37.68471409 39.33240271 34.36585431 36.04164084 30.96875 32.6328125 C30.29581909 31.95322479 29.62288818 31.27363708 28.92956543 30.57345581 C27.51345383 29.14726549 26.09466106 27.72373293 24.67333984 26.30273438 C22.49639114 24.12138385 20.33596229 21.9245038 18.17578125 19.7265625 C16.79525107 18.34016905 15.41377319 16.95471851 14.03125 15.5703125 C13.3863562 14.91104767 12.7414624 14.25178284 12.07702637 13.57254028 C11.46959595 12.97126312 10.86216553 12.36998596 10.23632812 11.75048828 C9.70656372 11.21787384 9.17679932 10.6852594 8.63098145 10.13650513 C6.78434679 8.61885896 6.78434679 8.61885896 3 9 C2 6 1 3 0 0 Z " fill="#B3AAF4" transform="translate(255,187)"/>
<path d="M0 0 C0.33 0.66 0.66 1.32 1 2 C-0.57283563 5.61752196 -2.25051942 9.1405402 -5 12 C-6.32 12 -7.64 12 -9 12 C-9 12.66 -9 13.32 -9 14 C-10.65 14.33 -12.3 14.66 -14 15 C-12.66198588 11.9350908 -11.29092019 10.14639067 -8.6875 8.0625 C-5.59914992 5.52333351 -2.78375034 2.86810641 0 0 Z " fill="#7E6FEA" transform="translate(122,176)"/>
<path d="M0 0 C3.0481188 1.3343696 4.79793243 2.66769977 6.875 5.25 C12.48173645 11.90414876 18.81412967 17.89134581 25 24 C24.67 24.66 24.34 25.32 24 26 C23.60208252 25.59160889 23.20416504 25.18321777 22.79418945 24.76245117 C20.97233648 22.89878952 19.14253329 21.04312816 17.3125 19.1875 C16.68666016 18.54490234 16.06082031 17.90230469 15.41601562 17.24023438 C12.11891918 13.90861336 9.0859696 11.35158097 5 9 C5 8.34 5 7.68 5 7 C4.01 6.67 3.02 6.34 2 6 C0.8125 2.9375 0.8125 2.9375 0 0 Z " fill="#A69CEE" transform="translate(121,19)"/>
<path d="M0 0 C3.76164364 0.45840393 4.80967066 1.38796556 7.39794922 4.09570312 C8.14560547 4.86269531 8.89326172 5.6296875 9.66357422 6.41992188 C10.80439453 7.63615234 10.80439453 7.63615234 11.96826172 8.87695312 C12.75201172 9.68777344 13.53576172 10.49859375 14.34326172 11.33398438 C16.27412174 13.33548562 18.18961384 15.34960937 20.09326172 17.37695312 C19.76326172 18.03695313 19.43326172 18.69695313 19.09326172 19.37695312 C13.48326172 13.76695313 7.87326172 8.15695312 2.09326172 2.37695312 C0.11326172 3.03695313 -1.86673828 3.69695313 -3.90673828 4.37695312 C-4.87550885 6.4093886 -4.87550885 6.4093886 -4.90673828 8.37695312 C-6.22673828 8.37695312 -7.54673828 8.37695312 -8.90673828 8.37695312 C-7.38091889 3.79949496 -4.95051488 0.64199521 0 0 Z " fill="#B9B3F5" transform="translate(100.90673828125,-0.376953125)"/>
<path d="M0 0 C2.475 0.495 2.475 0.495 5 1 C5 1.66 5 2.32 5 3 C8.25990429 4.62995214 10.29032842 5 14 5 C14 4.01 14 3.02 14 2 C16.49064888 1.31292445 18.37886292 1 21 1 C14.35276074 8.55828221 14.35276074 8.55828221 9.9375 10 C5.32172471 8.42867224 2.78401061 4.89596751 0 1 C0 0.67 0 0.34 0 0 Z " fill="#7363E9" transform="translate(91,277)"/>
<path d="M0 0 C0 3 0 3 -1.14575195 4.47045898 C-1.67128662 4.97391846 -2.19682129 5.47737793 -2.73828125 5.99609375 C-3.31126953 6.55490234 -3.88425781 7.11371094 -4.47460938 7.68945312 C-5.08111328 8.26630859 -5.68761719 8.84316406 -6.3125 9.4375 C-11.53033289 14.38657448 -11.53033289 14.38657448 -16 20 C-16.66 19.67 -17.32 19.34 -18 19 C-17.34 18.34 -16.68 17.68 -16 17 C-15.60235737 15.01178687 -15.26224651 13.01055661 -15 11 C-13.35 11 -11.7 11 -10 11 C-10.33 9.68 -10.66 8.36 -11 7 C-9.35 6.67 -7.7 6.34 -6 6 C-5.67 5.01 -5.34 4.02 -5 3 C-2.4375 1.3125 -2.4375 1.3125 0 0 Z " fill="#9387EE" transform="translate(304,246)"/>
<path d="M0 0 C0 4.03066816 -1.67283027 5.78303008 -4 9 C-4.66 9.66 -5.32 10.32 -6 11 C-6.99 11 -7.98 11 -9 11 C-9.66 12.32 -10.32 13.64 -11 15 C-11.66 15 -12.32 15 -13 15 C-12.34 16.32 -11.68 17.64 -11 19 C-12.32 18.34 -13.64 17.68 -15 17 C-15 14.875 -15 14.875 -14 12 C-12.14590354 10.3494559 -10.18363296 8.97310575 -8.14453125 7.55859375 C-5.08188739 5.33273783 -2.60737789 2.73774679 0 0 Z " fill="#8072E8" transform="translate(73,227)"/>
<path d="M0 0 C6.7382199 1.94659686 6.7382199 1.94659686 9 5 C9.3403125 6.11375 9.3403125 6.11375 9.6875 7.25 C11.44014281 10.92220399 14.05376106 12.77265559 17.22265625 15.25390625 C19.1802824 17.1771126 19.61921331 18.32277663 20 21 C12.74850525 14.93242276 5.79388371 8.51294811 0 1 C0 0.67 0 0.34 0 0 Z " fill="#BAB4F5" transform="translate(71,256)"/>
<path d="M0 0 C0.66 0.33 1.32 0.66 2 1 C1.01 3.64 0.02 6.28 -1 9 C-1.99 9 -2.98 9 -4 9 C-4 15.93 -4 22.86 -4 30 C-4.33 30 -4.66 30 -5 30 C-5.14671745 26.50045016 -5.23453588 23.00170297 -5.3125 19.5 C-5.35439453 18.51773438 -5.39628906 17.53546875 -5.43945312 16.5234375 C-5.55442692 9.62500987 -4.34497164 5.40010905 0 0 Z " fill="#A298F3" transform="translate(199,65)"/>
<path d="M0 0 C1.9375 0.8125 1.9375 0.8125 4 2 C4.33 2.99 4.66 3.98 5 5 C5.9590625 5.4640625 5.9590625 5.4640625 6.9375 5.9375 C9.45468915 7.2342338 9.96886948 8.4221737 11 11 C9.68 11 8.36 11 7 11 C6.67 9.68 6.34 8.36 6 7 C4.35 7 2.7 7 1 7 C0.67 4.69 0.34 2.38 0 0 Z " fill="#9185E9" transform="translate(146,45)"/>
<path d="M0 0 C0 0.99 0 1.98 0 3 C-0.61875 3.2475 -1.2375 3.495 -1.875 3.75 C-4.12035698 4.80602923 -4.12035698 4.80602923 -4.90625 6.875 C-6.15699807 9.30502482 -7.51669808 10.53212436 -9.625 12.25 C-10.25664062 12.77078125 -10.88828125 13.2915625 -11.5390625 13.828125 C-12.02117187 14.21484375 -12.50328125 14.6015625 -13 15 C-11.84826645 12.53199953 -10.95216435 10.95216435 -9 9 C-8.3574765 6.93125966 -8.3574765 6.93125966 -8 5 C-7.34 5 -6.68 5 -6 5 C-6 4.34 -6 3.68 -6 3 C-5.195625 2.690625 -4.39125 2.38125 -3.5625 2.0625 C-1.10919595 1.23664655 -1.10919595 1.23664655 0 0 Z " fill="#A599F0" transform="translate(285,266)"/>
<path d="M0 0 C5.20142984 2.44773169 7.82188865 6.40211381 11 11 C7.89978679 9.47639094 4.94837771 7.80178638 2 6 C2 6.66 2 7.32 2 8 C1.34 8 0.68 8 0 8 C0 5.36 0 2.72 0 0 Z " fill="#8D80EC" transform="translate(244,176)"/>
<path d="M0 0 C0.67095703 0.58007812 0.67095703 0.58007812 1.35546875 1.171875 C4.1442105 3.57411736 6.93789285 5.95031428 9.8125 8.25 C12 10 12 10 14 12 C14 12.66 14 13.32 14 14 C12.68 13.67 11.36 13.34 10 13 C10 12.34 10 11.68 10 11 C9.34 11 8.68 11 8 11 C8 10.34 8 9.68 8 9 C7.34 9 6.68 9 6 9 C4.4921875 7.5390625 4.4921875 7.5390625 2.875 5.625 C2.06675781 4.68527344 2.06675781 4.68527344 1.2421875 3.7265625 C0 2 0 2 0 0 Z " fill="#A79DF0" transform="translate(197,217)"/>
<path d="M0 0 C2.625 0.375 2.625 0.375 5 1 C3.73058503 4.91402949 2.48832306 6.79072873 -1 9 C-1.625 5.625 -1.625 5.625 -2 2 C-1.34 1.34 -0.68 0.68 0 0 Z " fill="#7668EB" transform="translate(292,52)"/>
<path d="M0 0 C3.40414403 1.13471468 4.24276648 2.17225987 6.5 4.875 C8.58578225 7.35415347 10.67301287 9.7439576 13 12 C12.67 12.66 12.34 13.32 12 14 C11.52949219 13.50628906 11.05898437 13.01257813 10.57421875 12.50390625 C9.95160156 11.86324219 9.32898438 11.22257812 8.6875 10.5625 C7.76517578 9.60537109 7.76517578 9.60537109 6.82421875 8.62890625 C4.99355944 6.7778582 4.99355944 6.7778582 2 6 C0.8125 2.9375 0.8125 2.9375 0 0 Z " fill="#AEA4F3" transform="translate(157,56)"/>
<path d="M0 0 C0 4.28535967 -2.2516278 5.84942699 -5 9 C-5.33 9.66 -5.66 10.32 -6 11 C-8.4375 12.6875 -8.4375 12.6875 -11 14 C-11.66 13.67 -12.32 13.34 -13 13 C-8.71 8.71 -4.42 4.42 0 0 Z " fill="#6552E3" transform="translate(89,211)"/>
<path d="M0 0 C2.97 0.495 2.97 0.495 6 1 C8 6.625 8 6.625 8 10 C6.66070495 8.71451591 5.32871357 7.42141845 4 6.125 C2.88625 5.04605469 2.88625 5.04605469 1.75 3.9453125 C0 2 0 2 0 0 Z " fill="#9589EE" transform="translate(62,246)"/>
<path d="M0 0 C0.33 0.99 0.66 1.98 1 3 C-0.8125 5.6875 -0.8125 5.6875 -3 8 C-3.66 8 -4.32 8 -5 8 C-5.66 9.32 -6.32 10.64 -7 12 C-7.66 11.67 -8.32 11.34 -9 11 C-7.90299157 7.7089747 -7.12380142 7.03976712 -4.5 4.9375 C-1.81893599 2.82278233 -1.81893599 2.82278233 0 0 Z " fill="#6553E3" transform="translate(108,191)"/>
<path d="M0 0 C-1.1427919 1.16964602 -2.28931715 2.33564556 -3.4375 3.5 C-4.07558594 4.1496875 -4.71367187 4.799375 -5.37109375 5.46875 C-7 7 -7 7 -8 7 C-8 5.02 -8 3.04 -8 1 C-2.25 -1.125 -2.25 -1.125 0 0 Z " fill="#8678E9" transform="translate(163,226)"/>
<path d="M0 0 C0.87794585 2.42789964 1.17648254 3.56971876 0.1796875 6 C-2.47880645 10.07529611 -4.91836389 13.20116381 -9 16 C-7.79340289 13.25773384 -6.27331021 10.95829963 -4.5 8.5625 C-2.49796306 5.82224885 -1.08128303 3.24384908 0 0 Z " fill="#B9B1F1" transform="translate(172,209)"/>
<path d="M0 0 C0.721875 0.103125 1.44375 0.20625 2.1875 0.3125 C0.89784824 1.68812854 -0.43939293 3.02016393 -1.8125 4.3125 C-2.4725 4.3125 -3.1325 4.3125 -3.8125 4.3125 C-4.1425 5.6325 -4.4725 6.9525 -4.8125 8.3125 C-6.1325 8.3125 -7.4525 8.3125 -8.8125 8.3125 C-7.32455013 3.8486504 -4.86162767 0.54018085 0 0 Z " fill="#9A8DEB" transform="translate(100.8125,-0.3125)"/>
<path d="M0 0 C0.66 0.33 1.32 0.66 2 1 C1.34 1.66 0.68 2.32 0 3 C-0.103125 3.639375 -0.20625 4.27875 -0.3125 4.9375 C-1 7 -1 7 -3.4375 8.8125 C-4.283125 9.204375 -5.12875 9.59625 -6 10 C-6.66 9.67 -7.32 9.34 -8 9 C-6.85459775 7.68712379 -5.70866567 6.37470979 -4.5625 5.0625 C-3.92441406 4.33160156 -3.28632813 3.60070313 -2.62890625 2.84765625 C-1.77458541 1.87860647 -0.91348825 0.91348825 0 0 Z " fill="#ADA5EE" transform="translate(209,55)"/>
<path d="M0 0 C0 3.20395416 -0.74335022 5.09399739 -2 8 C-3.98 6.35 -5.96 4.7 -8 3 C-7.13375 2.814375 -7.13375 2.814375 -6.25 2.625 C-3.97664233 1.99351176 -2.0746471 1.11141809 0 0 Z " fill="#6251E5" transform="translate(230,240)"/>
<path d="M0 0 C2.475 0.495 2.475 0.495 5 1 C5 1.66 5 2.32 5 3 C5.66 3.33 6.32 3.66 7 4 C7.72159424 5.64363134 8.39351421 7.31050386 9 9 C5.51127585 7.83709195 4.90023136 6.86032391 2.8125 3.9375 C2.28269531 3.20402344 1.75289063 2.47054688 1.20703125 1.71484375 C0.80871094 1.14894531 0.41039063 0.58304687 0 0 Z " fill="#988EEC" transform="translate(91,277)"/>
<path d="M0 0 C-1.98 2.31 -3.96 4.62 -6 7 C-6.66 6.67 -7.32 6.34 -8 6 C-7.67 5.01 -7.34 4.02 -7 3 C-7 2.01 -7 1.02 -7 0 C-2.25 -1.125 -2.25 -1.125 0 0 Z " fill="#978CEC" transform="translate(145,244)"/>
<path d="M0 0 C0.66 0.33 1.32 0.66 2 1 C-1.34969325 6.90184049 -1.34969325 6.90184049 -4 9 C-4.99 9 -5.98 9 -7 9 C-5.44499019 5.18315774 -2.96404505 2.80804268 0 0 Z " fill="#A89DEF" transform="translate(115,182)"/>
<path d="M0 0 C1 2 1 2 0.875 3.9375 C-0.39765983 6.93734103 -2.07111866 7.70584313 -5 9 C-7.3125 8.6875 -7.3125 8.6875 -9 8 C-3.25 4 -3.25 4 -1 4 C-0.67 2.68 -0.34 1.36 0 0 Z " fill="#7665E6" transform="translate(70,31)"/>
<path d="M0 0 C3.77545388 1.09068668 6.47043472 1.9083091 9 5 C8.67 5.99 8.34 6.98 8 8 C1.42857143 4 1.42857143 4 0 0 Z " fill="#8E81E8" transform="translate(71,256)"/>
<path d="M0 0 C1.65 1.32 3.3 2.64 5 4 C4.6875 5.9375 4.6875 5.9375 4 8 C3.01 8.33 2.02 8.66 1 9 C0.67 6.03 0.34 3.06 0 0 Z " fill="#9D94E7" transform="translate(304,237)"/>
<path d="M0 0 C6.875 3.625 6.875 3.625 8 7 C6.35 7 4.7 7 3 7 C3 6.34 3 5.68 3 5 C2.34 5 1.68 5 1 5 C0.67 3.35 0.34 1.7 0 0 Z " fill="#604EE7" transform="translate(297,233)"/>
<path d="M0 0 C1.98 0 3.96 0 6 0 C6.93423645 3.01031744 7.04449911 3.86650268 6 7 C4.02 4.69 2.04 2.38 0 0 Z " fill="#6554E2" transform="translate(215,235)"/>
<path d="M0 0 C5.75 1.625 5.75 1.625 8 5 C7.67 5.99 7.34 6.98 7 8 C5.83035398 6.8572081 4.66435444 5.71068285 3.5 4.5625 C2.8503125 3.92441406 2.200625 3.28632812 1.53125 2.62890625 C0 1 0 1 0 0 Z " fill="#6453E4" transform="translate(80,64)"/>
<path d="M0 0 C0.82638376 2.89234315 1 4.88742431 1 8 C0.01 8.33 -0.98 8.66 -2 9 C-2.66 8.34 -3.32 7.68 -4 7 C-3.34 5.68 -2.68 4.36 -2 3 C-1.34 3 -0.68 3 0 3 C0 2.01 0 1.02 0 0 Z " fill="#5E4BE8" transform="translate(125,173)"/>
<path d="M0 0 C1.9375 0.8125 1.9375 0.8125 4 2 C4.33 2.99 4.66 3.98 5 5 C5.99 5.33 6.98 5.66 8 6 C7.67 6.66 7.34 7.32 7 8 C5.1875 7.9375 5.1875 7.9375 3 7 C1.25 3.4375 1.25 3.4375 0 0 Z " fill="#AAA2EF" transform="translate(291,25)"/>
<path d="M0 0 C1.98 0 3.96 0 6 0 C4.35830472 2.02054804 2.69088222 4.02043058 1 6 C0.67 6 0.34 6 0 6 C0 4.02 0 2.04 0 0 Z " fill="#8477E8" transform="translate(146,236)"/>
<path d="M0 0 C0.99 0.33 1.98 0.66 3 1 C3.33 1.99 3.66 2.98 4 4 C2.35 5.32 0.7 6.64 -1 8 C-0.67 5.36 -0.34 2.72 0 0 Z " fill="#5E4DEA" transform="translate(298,45)"/>
<path d="M0 0 C3.7952131 1.49097658 5.61042731 3.75700849 8 7 C6.35 7 4.7 7 3 7 C2.896875 6.38125 2.79375 5.7625 2.6875 5.125 C2.12474627 2.63473516 2.12474627 2.63473516 -1 1 C-0.67 0.67 -0.34 0.34 0 0 Z " fill="#614FE8" transform="translate(101,1)"/>
<path d="M0 0 C2.97 0.495 2.97 0.495 6 1 C6 1.99 6 2.98 6 4 C3.69 4 1.38 4 -1 4 C-0.67 2.68 -0.34 1.36 0 0 Z " fill="#6E5DE9" transform="translate(230,34)"/>
<path d="M0 0 C0.33 0.99 0.66 1.98 1 3 C-1.97 5.475 -1.97 5.475 -5 8 C-5.66 7.67 -6.32 7.34 -7 7 C-4.69 4.69 -2.38 2.38 0 0 Z " fill="#614EE4" transform="translate(257,8)"/>
<path d="M0 0 C2.5625 0.375 2.5625 0.375 4.375 2.375 C4.766875 3.035 5.15875 3.695 5.5625 4.375 C2.18544375 3.83774105 -1.134186 3.26435377 -4.4375 2.375 C-2.4375 0.375 -2.4375 0.375 0 0 Z " fill="#9387EE" transform="translate(265.4375,-0.375)"/>
<path d="M0 0 C0 3 0 3 -1.53125 4.60546875 C-2.1809375 5.12753906 -2.830625 5.64960938 -3.5 6.1875 C-4.1496875 6.71730469 -4.799375 7.24710938 -5.46875 7.79296875 C-5.9740625 8.19128906 -6.479375 8.58960938 -7 9 C-6.07506212 5.21616321 -5.60628829 3.43306306 -2.375 1.125 C-1.199375 0.568125 -1.199375 0.568125 0 0 Z " fill="#B5AEF3" transform="translate(304,246)"/>
<path d="M0 0 C0 3.57575896 -1.08840607 5.05295935 -3 8 C-4.32 7.67 -5.64 7.34 -7 7 C-4.69 4.69 -2.38 2.38 0 0 Z " fill="#6552E4" transform="translate(226,40)"/>
<path d="M0 0 C0.66 0.33 1.32 0.66 2 1 C-1.465 3.97 -1.465 3.97 -5 7 C-5 5.35 -5 3.7 -5 2 C-4.360625 1.855625 -3.72125 1.71125 -3.0625 1.5625 C-1.02454854 1.18992819 -1.02454854 1.18992819 0 0 Z " fill="#9F92ED" transform="translate(110,277)"/>
<path d="M0 0 C0.66 0.33 1.32 0.66 2 1 C0.515 4.96 0.515 4.96 -1 9 C-1.66 9 -2.32 9 -3 9 C-1.125 2.25 -1.125 2.25 0 0 Z " fill="#948AE5" transform="translate(199,65)"/>
<path d="M0 0 C0.33 0.66 0.66 1.32 1 2 C-0.25 4.625 -0.25 4.625 -2 7 C-2.99 7 -3.98 7 -5 7 C-3.70700306 4.11562221 -2.34058637 2.12780579 0 0 Z " fill="#6958E1" transform="translate(213,53)"/>
<path d="M0 0 C0.99 0.33 1.98 0.66 3 1 C2.01 2.485 2.01 2.485 1 4 C0.34 4 -0.32 4 -1 4 C-1.33 4.99 -1.66 5.98 -2 7 C-2.33 6.01 -2.66 5.02 -3 4 C-1.5625 1.8125 -1.5625 1.8125 0 0 Z " fill="#604DE8" transform="translate(92,8)"/>
<path d="M0 0 C2.04119788 1.61594832 4.04072937 3.2856382 6 5 C6 5.66 6 6.32 6 7 C5.01 7 4.02 7 3 7 C3 6.01 3 5.02 3 4 C2.01 3.67 1.02 3.34 0 3 C0 2.01 0 1.02 0 0 Z " fill="#6857E1" transform="translate(290,224)"/>
<path d="M0 0 C1.32 0.33 2.64 0.66 4 1 C0.535 3.97 0.535 3.97 -3 7 C-2.67 5.68 -2.34 4.36 -2 3 C-1.34 3 -0.68 3 0 3 C0 2.01 0 1.02 0 0 Z " fill="#6654E2" transform="translate(244,104)"/>
</svg>
